<?xml version="1.0" encoding="utf-8"?><svg xmlSpace="preserve" viewBox="0 0 100 100" y="0" x="0" xmlns="http://www.w3.org/2000/svg" id="圖層_1" version="1.1" width="200px" height="200px" xmlnsXlink="http://www.w3.org/1999/xlink" style="width:100%;height:100%;background-size:initial;background-repeat-y:initial;background-repeat-x:initial;background-position-y:initial;background-position-x:initial;background-origin:initial;background-color:initial;background-clip:initial;background-attachment:initial;animation-play-state:paused" ><g class="ldl-scale" style="transform-origin:50% 50%;transform:rotate(0deg) scale(0.8, 0.8);animation-play-state:paused" ><path stroke-miterlimit="10" stroke-linejoin="round" stroke-width="3.5" stroke="#333" fill="#f7b16a" d="M82.4 64.3H17.6c-5.6 0-10.1-4.5-10.1-10.1v-1.3c0-9.5 7.7-17.2 17.2-17.2h50.6c9.5 0 17.2 7.7 17.2 17.2v1.3c0 5.6-4.5 10.1-10.1 10.1z" style="stroke:rgb(0, 0, 0);fill:rgb(255, 255, 255);animation-play-state:paused" ></path>
<path stroke="#333" fill="#f3e5c7" stroke-miterlimit="10" stroke-linejoin="round" stroke-width="3.5" d="M20.4 51c2.8-2.6 5-5.2 7.5-7.5 2.4-2.4 5-4.5 7.8-6.4.7-.5 1.4-.9 2.2-1.4H26.5c-2.1 1.9-3.7 4-4.8 6.1-1.4 3-2 6.1-1.3 9.2z" style="stroke:rgb(0, 0, 0);fill:rgb(255, 255, 255);animation-play-state:paused" ></path>
<path stroke="#333" fill="#f3e5c7" stroke-miterlimit="10" stroke-linejoin="round" stroke-width="3.5" d="M40.3 51c2.6-2.6 4.7-5.2 7-7.5 2.3-2.4 4.7-4.5 7.3-6.4.7-.5 1.3-.9 2-1.4H46c-2 1.9-3.5 4-4.5 6.1-1.3 3-1.8 6.1-1.2 9.2z" style="stroke:rgb(0, 0, 0);fill:rgb(255, 255, 255);animation-play-state:paused" ></path>
<path stroke="#333" fill="#f3e5c7" stroke-miterlimit="10" stroke-linejoin="round" stroke-width="3.5" d="M60.3 51c2.7-2.6 4.8-5.2 7.2-7.5 2.3-2.4 4.7-4.5 7.5-6.4.7-.5 1.4-.9 2.1-1.4h-11c-2 1.9-3.6 4-4.6 6.1-1.4 3-1.9 6.1-1.2 9.2z" style="stroke:rgb(0, 0, 0);fill:rgb(255, 255, 255);animation-play-state:paused" ></path>
<path stroke-miterlimit="10" stroke-linejoin="round" stroke-width="3.5" stroke="#000" opacity=".2" d="M83.4 37.7c.1.9.1 1.8.1 2.7 0 11.5-9.3 20.8-20.8 20.8H10.3c1.8 1.9 4.4 3.1 7.3 3.1h64.8c5.6 0 10.1-4.5 10.1-10.1v-1.3c0-6.6-3.7-12.3-9.1-15.2z" style="stroke:rgb(255, 255, 255);fill:rgb(255, 255, 255);animation-play-state:paused" ></path>
<metadata xmlnsD="https://loading.io/stock/" style="animation-play-state:paused" ><dName style="animation-play-state:paused" >bread</dName>
<dTags style="animation-play-state:paused" >bread,baguette,french bread,french toast,ciabatta,food,eat</dTags>
<dLicense style="animation-play-state:paused" >by</dLicense>
<dSlug style="animation-play-state:paused" >ptgw9v</dSlug></metadata></g><!-- generated by https://loading.io/ --></svg>