<?xml version="1.0" encoding="utf-8"?><svg xmlSpace="preserve" viewBox="0 0 100 100" y="0" x="0" xmlns="http://www.w3.org/2000/svg" id="圖層_1" version="1.1" width="200px" height="200px" xmlnsXlink="http://www.w3.org/1999/xlink" style="width:100%;height:100%;background-size:initial;background-repeat-y:initial;background-repeat-x:initial;background-position-y:initial;background-position-x:initial;background-origin:initial;background-color:initial;background-clip:initial;background-attachment:initial;animation-play-state:paused" ><g class="ldl-scale" style="transform-origin:50% 50%;transform:rotate(0deg) scale(0.8, 0.8);animation-play-state:paused" ><g style="animation-play-state:paused" ><path d="M19.808 34.451h52.999v10.14H19.808z" fill="#333" style="fill:rgb(255, 255, 255);animation-play-state:paused" ></path></g>
<g style="animation-play-state:paused" ><path d="M19.808 55.409h52.999v10.14H19.808z" fill="#333" style="fill:rgb(255, 255, 255);animation-play-state:paused" ></path></g>
<g style="animation-play-state:paused" ><path fill="#333" d="M65.124 90c-20.828 0-37.773-17.944-37.773-40s16.945-40 37.773-40c5.649 0 11.091 1.295 16.175 3.849l-4.552 9.06c-3.658-1.838-7.568-2.77-11.623-2.77C49.886 20.14 37.49 33.535 37.49 50s12.396 29.86 27.634 29.86c4.053 0 7.963-.932 11.623-2.77l4.55 9.061C76.214 88.705 70.772 90 65.124 90z" style="fill:rgb(255, 255, 255);animation-play-state:paused" ></path></g>
<metadata xmlnsD="https://loading.io/stock/" style="animation-play-state:paused" ><dName style="animation-play-state:paused" >euro</dName>
<dTags style="animation-play-state:paused" >euro,eur,currency,europe</dTags>
<dLicense style="animation-play-state:paused" >by</dLicense>
<dSlug style="animation-play-state:paused" >ovaee1</dSlug></metadata></g><!-- generated by https://loading.io/ --></svg>