<?xml version="1.0" encoding="utf-8"?><svg xmlSpace="preserve" viewBox="0 0 100 100" y="0" x="0" xmlns="http://www.w3.org/2000/svg" id="Layer_1" version="1.1" width="200px" height="200px" xmlnsXlink="http://www.w3.org/1999/xlink" style="width:100%;height:100%;background-size:initial;background-repeat-y:initial;background-repeat-x:initial;background-position-y:initial;background-position-x:initial;background-origin:initial;background-color:initial;background-clip:initial;background-attachment:initial;animation-play-state:paused" ><g class="ldl-scale" style="transform-origin:50% 50%;transform:rotate(0deg) scale(0.8, 0.8);animation-play-state:paused" ><g style="animation-play-state:paused" ><path fill="#e15c64" d="M57.2 86.9c-2.8 0-5.5-1.1-7.6-3.2C33.9 67.4 25.5 48 24.7 25.8c-.2-5.8 4.4-10.8 10.2-11 5.8-.2 10.8 4.4 11 10.2.6 17 6.8 31.4 18.9 43.9 4.1 4.2 4 10.9-.2 15-2.1 2-4.7 3-7.4 3z" style="fill:rgb(255, 255, 255);animation-play-state:paused" ></path></g>
<g style="animation-play-state:paused" ><path fill="#e15c64" d="M32.4 14.8c-1.8-2.5-3.7-5-5.5-7.4 1.3-.5 2.7-.3 4 .3s2.4 1.3 3.5 2.1C35.3 8 36.6 6.4 38 5c.2 1.6.2 3.2.2 4.8 1.6-1 3.5-1.6 5.4-1.5-2.1 1.6-3.8 3.7-5 6-.2.4-.5.9-.9 1-.4.1-.8-.1-1.2-.2-1.2-.5-2.5-.6-3.8-.4" style="fill:rgb(255, 255, 255);animation-play-state:paused" ></path></g>
<g style="animation-play-state:paused" ><path fill="#f4e6c8" d="M38.9 16.3h-7.1c-.8 0-1.4-.6-1.4-1.4 0-.8.6-1.4 1.4-1.4h7.1c.8 0 1.4.6 1.4 1.4 0 .7-.7 1.4-1.4 1.4z" style="fill:rgb(255, 255, 255);animation-play-state:paused" ></path></g>
<g style="animation-play-state:paused" ><path fill="#e15c64" d="M66.2 82.7c3 .6 6 1.2 9 1.9-.6 1.2-1.9 2-3.1 2.5s-2.7.6-4 .7c.5 1.9.6 3.9.5 5.9-1.2-1.1-2.3-2.2-3.3-3.4-.5 1.8-1.5 3.5-3 4.7.4-2.6.3-5.3-.4-7.8-.1-.5-.2-1 0-1.4.2-.4.7-.5 1.1-.6 1.2-.4 2.3-1.2 3.1-2.2" style="fill:rgb(255, 255, 255);animation-play-state:paused" ></path></g>
<g style="animation-play-state:paused" ><path fill="#f4e6c8" d="M61.4 88.4c-.4 0-.8-.2-1.1-.5-.5-.6-.5-1.5.1-2l5.2-4.7c.6-.5 1.5-.5 2 .1s.5 1.5-.1 2L62.3 88c-.2.3-.6.4-.9.4z" style="fill:rgb(255, 255, 255);animation-play-state:paused" ></path></g>
<metadata xmlnsD="https://loading.io/stock/" style="animation-play-state:paused" ><dName style="animation-play-state:paused" >sausage</dName>
<dTags style="animation-play-state:paused" >sausage,ham,banger,snag,rolliche,frankfurter,food</dTags>
<dLicense style="animation-play-state:paused" >by</dLicense>
<dSlug style="animation-play-state:paused" >5ksy7s</dSlug></metadata></g><!-- generated by https://loading.io/ --></svg>